<svg width="74" height="74" viewBox="0 0 74 74" fill="none" xmlns="http://www.w3.org/2000/svg">
<circle cx="37" cy="37" r="36.5" fill="#013C66" stroke="white"/>
<path d="M52.4471 52H60L43.6693 18.3554C42.9676 16.91 41.5514 16 40.0077 16H32.4547L37.3412 26.0639C38.0174 27.4424 37.4943 29.142 36.1674 29.8513C34.8405 30.5606 33.2202 30.0119 32.5568 28.6201C31.8551 27.1747 30.4389 26.2647 28.8951 26.2647H21.3422L28.6527 41.3204C29.3289 42.7123 28.8058 44.4119 27.4789 45.1212C26.1521 45.8305 24.5318 45.2818 23.8556 43.89L21.2146 38.4431C20.5129 36.9978 19.0967 36.0877 17.5529 36.0877H10L16.5833 49.6312C17.285 51.0766 18.7012 51.9866 20.245 51.9866H27.7979L27.3769 51.1033C26.7007 49.7115 27.2238 48.0119 28.5507 47.3026C29.8775 46.5933 31.4978 47.142 32.174 48.5338L32.7099 49.6312C33.4116 51.0766 34.8278 51.9866 36.3715 51.9866H43.9245L36.0653 35.8201C35.3891 34.4416 35.9122 32.742 37.2391 32.0327C38.566 31.3234 40.1863 31.8721 40.8497 33.2639L48.7982 49.6312C49.4999 51.0766 50.9161 51.9866 52.4598 51.9866L52.4471 52Z" fill="white"/>
</svg>
