<svg width="98" height="98" viewBox="0 0 98 98" fill="none" xmlns="http://www.w3.org/2000/svg">
<path d="M19.6191 13.475C19.466 13.475 19.2937 13.4941 19.1406 13.5171C13.2089 14.5334 7.25813 27.6964 5.28281 32.4625H48.6937L50.9715 27.8878C48.598 24.0597 44.2148 18.2486 39.8125 18.4936C36.9223 18.6468 31.3906 24.9976 31.3906 24.9976C31.3906 24.9976 24.6148 13.4156 19.6191 13.475ZM56.9625 23.6578L50.8375 35.9078H35.5824L27.7922 54.0914C32.0031 54.723 35.7164 56.905 38.3195 60.025H55.0867C56.0055 58.9148 57.0582 57.9386 58.2258 57.0964L63.7 32.4625H73.0598L76.1797 23.6578H56.9625ZM4.01953 35.9078V51.2203L6.61691 51.8902L13.4693 35.9078H4.01953ZM17.2093 35.9078L9.97992 52.7707L14.8723 54.0531L22.6434 35.9078H17.2093ZM26.3949 35.9078L18.2372 54.9336L18.9454 55.125C20.557 54.4742 22.2988 54.0531 24.1172 53.9382L31.8309 35.9078H26.3949ZM66.4563 35.9078L62.2262 54.9527C64.0637 54.2828 66.0734 53.9 68.1406 53.9C75.8543 53.9 82.4195 59.0871 84.4867 66.15H93.9805V50.7418L85.0801 47.775L82.1133 35.9078H75.4715H66.4563ZM69.8633 38.5875H78.668L81.0605 48.1578H67.4707L69.5379 39.889L69.8633 38.5875ZM25.2656 57.3453C17.7395 57.3453 11.6758 63.4129 11.6758 70.9351C11.6758 78.4574 17.7395 84.525 25.2656 84.525C32.7879 84.525 38.8555 78.4574 38.8555 70.9351C38.8555 63.4129 32.7879 57.3453 25.2656 57.3453ZM68.1406 57.3453C60.6184 57.3453 54.5508 63.4129 54.5508 70.9351C54.5508 78.4574 60.6184 84.525 68.1406 84.525C75.6629 84.525 81.7305 78.4574 81.7305 70.9351C81.7305 63.4129 75.6629 57.3453 68.1406 57.3453ZM6.77195 63.4703L4.39852 75.3375H8.81043C8.43336 73.9402 8.23047 72.4472 8.23047 70.9351C8.23047 68.2554 8.85254 65.7289 9.96078 63.4703H6.77195ZM40.5781 63.4703C41.6691 65.7289 42.3008 68.2554 42.3008 70.9351C42.3008 72.4472 42.0902 73.9402 41.7266 75.3375H51.6797C51.316 73.9402 51.1055 72.4472 51.1055 70.9351C51.1055 68.2554 51.7371 65.7289 52.8281 63.4703H40.5781ZM25.2656 64.8101C26.8901 64.8101 28.448 65.4554 29.5967 66.6041C30.7453 67.7528 31.3906 69.3107 31.3906 70.9351C31.3906 72.5596 30.7453 74.1175 29.5967 75.2661C28.448 76.4148 26.8901 77.0601 25.2656 77.0601C23.6412 77.0601 22.0833 76.4148 20.9346 75.2661C19.7859 74.1175 19.1406 72.5596 19.1406 70.9351C19.1406 69.3107 19.7859 67.7528 20.9346 66.6041C22.0833 65.4554 23.6412 64.8101 25.2656 64.8101ZM68.1406 64.8101C69.7651 64.8101 71.323 65.4554 72.4716 66.6041C73.6203 67.7528 74.2656 69.3107 74.2656 70.9351C74.2656 72.5596 73.6203 74.1175 72.4716 75.2661C71.323 76.4148 69.7651 77.0601 68.1406 77.0601C66.5162 77.0601 64.9583 76.4148 63.8096 75.2661C62.6609 74.1175 62.0156 72.5596 62.0156 70.9351C62.0156 69.3107 62.6609 67.7528 63.8096 66.6041C64.9583 65.4554 66.5162 64.8101 68.1406 64.8101ZM85.1184 69.5953C85.1566 70.0355 85.1758 70.4757 85.1758 70.9351C85.1758 72.9832 84.8121 74.9355 84.1422 76.773L93.9805 72.83V69.5953H85.1184Z" fill="white"/>
</svg>
