<svg width="45" height="45" viewBox="0 0 45 45" fill="none" xmlns="http://www.w3.org/2000/svg">
<path d="M19.8562 25.1437C20.625 25.875 20.625 27.075 19.8562 27.8062C19.125 28.5375 17.925 28.5375 17.1937 27.8062C15.4376 26.0474 14.4512 23.6635 14.4512 21.1781C14.4512 18.6926 15.4376 16.3088 17.1937 14.55L23.8312 7.91247C25.59 6.1563 27.9739 5.16992 30.4593 5.16992C32.9448 5.16992 35.3287 6.1563 37.0875 7.91247C38.8436 9.67127 39.83 12.0551 39.83 14.5406C39.83 17.0261 38.8436 19.4099 37.0875 21.1687L34.2937 23.9625C34.3125 22.425 34.0687 20.8875 33.5437 19.425L34.425 18.525C34.9506 18.005 35.3679 17.386 35.6527 16.7037C35.9375 16.0213 36.0841 15.2893 36.0841 14.55C36.0841 13.8106 35.9375 13.0786 35.6527 12.3963C35.3679 11.714 34.9506 11.0949 34.425 10.575C33.905 10.0493 33.286 9.63205 32.6036 9.34725C31.9213 9.06246 31.1893 8.91582 30.45 8.91582C29.7106 8.91582 28.9786 9.06246 28.2963 9.34725C27.614 9.63205 26.9949 10.0493 26.475 10.575L19.8562 17.1937C19.3306 17.7137 18.9133 18.3327 18.6285 19.015C18.3437 19.6973 18.1971 20.4294 18.1971 21.1687C18.1971 21.9081 18.3437 22.6401 18.6285 23.3224C18.9133 24.0047 19.3306 24.6238 19.8562 25.1437ZM25.1437 17.1937C25.875 16.4625 27.075 16.4625 27.8062 17.1937C29.5624 18.9525 30.5488 21.3364 30.5488 23.8218C30.5488 26.3073 29.5624 28.6912 27.8062 30.45L21.1687 37.0875C19.4099 38.8436 17.0261 39.83 14.5406 39.83C12.0551 39.83 9.67127 38.8436 7.91247 37.0875C6.1563 35.3287 5.16992 32.9448 5.16992 30.4593C5.16992 27.9739 6.1563 25.59 7.91247 23.8312L10.7062 21.0375C10.6875 22.575 10.9312 24.1125 11.4562 25.5937L10.575 26.475C10.0493 26.9949 9.63205 27.614 9.34725 28.2963C9.06246 28.9786 8.91582 29.7106 8.91582 30.45C8.91582 31.1893 9.06246 31.9213 9.34725 32.6036C9.63205 33.286 10.0493 33.905 10.575 34.425C11.0949 34.9506 11.714 35.3679 12.3963 35.6527C13.0786 35.9375 13.8106 36.0841 14.55 36.0841C15.2893 36.0841 16.0213 35.9375 16.7037 35.6527C17.386 35.3679 18.005 34.9506 18.525 34.425L25.1437 27.8062C25.6694 27.2863 26.0866 26.6672 26.3714 25.9849C26.6562 25.3026 26.8029 24.5706 26.8029 23.8312C26.8029 23.0919 26.6562 22.3598 26.3714 21.6775C26.0866 20.9952 25.6694 20.3762 25.1437 19.8562C24.9616 19.6856 24.8165 19.4794 24.7172 19.2504C24.618 19.0214 24.5668 18.7745 24.5668 18.525C24.5668 18.2754 24.618 18.0285 24.7172 17.7995C24.8165 17.5705 24.9616 17.3644 25.1437 17.1937Z" fill="#3B8AFF"/>
</svg>
