<svg width="45" height="45" viewBox="0 0 45 45" fill="none" xmlns="http://www.w3.org/2000/svg">
<path d="M8.64516 37.5312H10.9677V41H8.64516C6.08306 41 4 38.926 4 36.375V8.625C4 6.07402 6.08306 4 8.64516 4H20.6573C21.8911 4 23.0742 4.48418 23.9452 5.35137L30.5137 11.8914C31.3847 12.7586 31.871 13.9365 31.871 15.165V24.8125H28.3871V15.5625H22.5806C21.296 15.5625 20.2581 14.5291 20.2581 13.25V7.46875H8.64516C8.00645 7.46875 7.48387 7.98906 7.48387 8.625V36.375C7.48387 37.0109 8.00645 37.5312 8.64516 37.5312ZM16.7742 29.4375H19.0968C21.3395 29.4375 23.1613 31.2514 23.1613 33.4844C23.1613 35.7174 21.3395 37.5312 19.0968 37.5312H17.9355V39.8438C17.9355 40.4797 17.4129 41 16.7742 41C16.1355 41 15.6129 40.4797 15.6129 39.8438V30.5938C15.6129 29.9578 16.1355 29.4375 16.7742 29.4375ZM19.0968 35.2188C20.0621 35.2188 20.8387 34.4455 20.8387 33.4844C20.8387 32.5232 20.0621 31.75 19.0968 31.75H17.9355V35.2188H19.0968ZM26.0645 29.4375H28.3871C30.3105 29.4375 31.871 30.9912 31.871 32.9062V37.5312C31.871 39.4463 30.3105 41 28.3871 41H26.0645C25.4258 41 24.9032 40.4797 24.9032 39.8438V30.5938C24.9032 29.9578 25.4258 29.4375 26.0645 29.4375ZM28.3871 38.6875C29.0258 38.6875 29.5484 38.1672 29.5484 37.5312V32.9062C29.5484 32.2703 29.0258 31.75 28.3871 31.75H27.2258V38.6875H28.3871ZM34.1935 30.5938C34.1935 29.9578 34.7161 29.4375 35.3548 29.4375H38.8387C39.4774 29.4375 40 29.9578 40 30.5938C40 31.2297 39.4774 31.75 38.8387 31.75H36.5161V34.0625H38.8387C39.4774 34.0625 40 34.5828 40 35.2188C40 35.8547 39.4774 36.375 38.8387 36.375H36.5161V39.8438C36.5161 40.4797 35.9935 41 35.3548 41C34.7161 41 34.1935 40.4797 34.1935 39.8438V30.5938Z" fill="#3B8AFF"/>
</svg>
